/* XPM */
static char *result[] = {
/* columns rows colors chars-per-pixel */
"54 54 84 1 ",
"  c #010101",
". c #070708",
"X c #080708",
"o c #0C0C0C",
"O c #100F10",
"+ c #141415",
"@ c #181718",
"# c #1B1B1C",
"$ c #232323",
"% c #272728",
"& c #282728",
"* c #2C2C2D",
"= c #2F2F30",
"- c #302F30",
"; c #343334",
": c #373638",
"> c #383738",
", c #3C3B3C",
"< c #403E3F",
"1 c #3F3E40",
"2 c #403F41",
"3 c #444344",
"4 c #484646",
"5 c #474749",
"6 c #484748",
"7 c #4C4B4C",
"8 c #504E4F",
"9 c #4F4E50",
"0 c #535254",
"q c #585657",
"w c #575658",
"e c #585759",
"r c #5C5B5D",
"t c #615E5F",
"y c #5F5E60",
"u c #605F61",
"i c #646264",
"p c #666568",
"a c #696769",
"s c #6C6B6D",
"d c #6F6E70",
"f c #706E72",
"g c #747274",
"h c #777679",
"j c #797779",
"k c #7C7A7C",
"l c #807D7F",
"z c #7F7E81",
"x c #817F82",
"c c #858385",
"v c #8A8787",
"b c #878589",
"n c #888789",
"m c #8C8A8D",
"M c #8F8D90",
"N c #918E91",
"B c #949295",
"V c #989597",
"C c #979598",
"Z c #99979A",
"A c #9C9A9D",
"S c #9E9DA1",
"D c #A29FA2",
"F c #A5A2A5",
"G c #A9A5A6",
"H c #A7A5A8",
"J c #A9A7AA",
"K c #ADAAAD",
"L c #B1ABAF",
"P c #AEADB1",
"I c #B2AFB2",
"U c #B5B2B5",
"Y c #B9B4B7",
"T c #B6B5B9",
"R c #BAB6BA",
"E c #BDBABD",
"W c #C1BCBE",
"Q c #BEBCC1",
"! c #C1BEC2",
"~ c #C4C1C5",
"^ c #C9C4C7",
"/ c #C6C4C9",
"( c #C9C6C9",
") c #CBC9CB",
/* pixels */
"!EE~)~~E^W!W!EE!E!~(/~~!EE~~QQQQQ!~~~!EE!WEWE~^!W~~~WE",
"~~ET~E!~W!^WEEEEQ!W~!~~WRRQQQQQQQ~EEQEERRRWW~~~~W~^WWW",
"~EEEEW~~WW!!!RW~~QQQE~~EEEEQQ/QQ//!!!!~!WW~~~~~!W!^RE!",
"~~~Q!~WW^!^^!R!!~~~/~!~!QQ~EQ//Q~/Q!EEE/WW~^~~~~~RRWWW",
"~~~~!QRE!~~~!W~W~///~~!~~~QQQQQ/!!RYWRW~EEW(EYE~~EEEWE",
"!W~~EE~/!!~W~!!W~/~!!~!~~~/~Q//QL4*D~W~~!WWWUT~~~~WWWE",
"~!~/!!~!!~^W!^~~Q!QQ~wh!~!!~~/n$    mWW~~~WWTEWWE~~~RE",
"!!~!E~~EYW~WW~NmQQ!R*.#~/~Q~(i .3lg XLW!~~WWEERW~~~^EE",
"~~~WQ//~TQ~~~U  #kC@ .*/~/~~y %I~~~m *!W~!W~WW^)!W!^EL",
"~~~!Q~//QQ!~^Eo.+   z#$Q~/~v *REQQTQ7 kWW!~Q!!WE^!WWUW",
"/~~!~~~~!WWW~~*oUc3AQ+$~/~!o IERRQQERXXTW!EQ~ELYU!WWE~",
"~~~RQ~~QW^~EE~0 KQ~QT.*~!~F.7W~!!!Q!~h a!!~~WYB$ $NWEQ",
"EEQ!PpJQ^~~/~!c h~!~T ;Q~~b gW~~!!!/~! $!~!QEB  >  d!~",
"TEQQ;.p~~WQ~(/K 7!~~T @~~/i o#s!~^//!!- I~~!E+ Z~J@ B~",
"~QQp  y~~E/~Q/g dQQQTp 7~!M@@  *04jWE!k b~!~r d~~~U +~",
"~Qm.o i~QEQQ~/o.QQQ~!~, g~!TTP3    *7qa d~~~+OQQ~~!y c",
"!T..g d~~Q/Q/d d/~////R@ mQQQQ!Qj $.    r~!P >QEQ~!G 4",
"Q= BZ h!//QQQo.!~~QQTf1  0~//QQ/j BQHZ; g~~R ;~!Q~QI ;",
"a rQj c~QQQQQo ;gPQP@  ;fUQ~/~~~8 J^~~~FQ~~~#O!!!!~L ,",
"h d!d bQQQ~QQC3  +Qm 0RQQQQ~Q~/~; U!E!~!!~QQ< U~~~~H 6",
"E+.Ef B~/~Q~!!QTp ee IQQ/QQ~Q~~~++!!RW!~~^WWs m~~~~n s",
"!c ss A/Q~Q//!Q~Q= o#!!!~Q!QQ~~P -!WRW!~(~~WF ;~~~~0 Z",
"W!#X> S~QQ~~/Q!~Qb  0!!(~Q~~~QQS 8WW!!~~^!~WE- D!~K.+~",
"!Em  OH!QQQQQ!!~/!o hQ!^~/)~~~!U @2lW!~~~!^!WA XVB+ k^",
"!EE- +UQE~EE!~~~/~f>PE!QE~(~!!~!q  aE!~!^!!~!WV    8!!",
"~~EB  Y~a&FEQ!QQQ~~H!~!QT~~/~!^~~gaR!!EE~(^!TUGF7rVFUY",
"!W!!<<~~, kWE~QQ~/Zox!~n@C~/!!!k>!!WDgU~~~^WY3 k!~j BW",
"~EE~q:~ELmY~EQ~~/)b 7k~m gQ/!WW8 V^~t Z!WWWRY   c!+ UW",
"WEQE< *;<KW!WWWWQ/B * 3y dQ!!!Wq B!~i m!WW>tErXXVY 4WW",
"EQ~QZ%   7~!^!YY~~M y; : p!~!WWt BIQf N!W^o Hk2n!i MW~",
"~~W~~K+  8WWW^W~(~S ;;#ydJ/!!WWq m$0z n!W!a   X$roo~~!",
"E~~!Ec   7W^W~!^!E!%    5!^!!!!j y $g bW!WRd$     s~W!",
"~~~~Qz   +aR~!WW!W!*    $R/~QQ~R $gMf cQQQ!~j    p!^!W",
"EEQ~~Po o  B~!WWR!!t  . jR/(QQ!Qg9CQP9H~QQ~~7    h!~^~",
"EEQ~!Q0  @k!WW!WEYED   XPQQ~~Q~!Q* .n~~~~QQQ=    3E!~~",
"Q!Q~~~S  *~~EW^~~W!LX   z~Q~Q~!~S   @~Q~QQ~S@    #R^~~",
"~QQQQQ/2  vW~(~!!^~m    1~~~QQ~/m    A!QQ!~i      VRQ/",
"!QQQQQQ=  -W^^WW!~~f    oP~~~~!~h    gWR~/!Iw  ++$JTT/",
"QQTQQTc +o G~^W!~/!7 ..o s~~/~!!x    >~R!~!!Q *SaI!~!!",
"QQQQQT: g6 v(~!^~W!$ X  Oc~~/(^(h    rQTQ/~!r AH-T^!~/",
"Q~QE~H  E> V~!^~~WQs$ 4+:!~!Q~~~K; o+UTE/!~!3 SQKQ~~!~",
"EQQ~!c 0^+ J~~~!EQQQF r*$/~~QQ!~~v +OLR~/E!!S #~~QQ~~~",
"EEQQQUkEE  E(^W^~~~~T ,;@QR!~~~~~m #.BE!~!!!~u0!QQQQ~~",
"EEQEQQQ!E44W!!WWE!~~!+*$ RER~~~W!AX# x~~!!Q~~~!QQQQQQ~",
"QQEQQ!!Q!^WW!!!IE~W~~#Xdu/QQ~~~~!Jo+ a~/Q/QQQ~/QQQQQ!!",
"~~~~~!~~!!!!!^!WE~~~Qku/!!Q/~!~W!RXX 3!~/QQQ!~/QTQQQQ!",
"~~QE!/!~~^!^^!!WQ~~/!EQQEQQ~~!E!!!iurx!/!QQQQ/QQQQQQQ!",
"~!!Q!(/!Q/^!!!!!!QQQQEQ!~~~~~~!~!~^~!R/)!QQQ~/~QQ//QQQ",
"!ER~QQ~QTQ/~QQQQQQ~~!QQ~^!^^!!~Q!^~/!E!!R!!Q!!!/Q!/~RR",
"E!QTRQQEQQQ~/EQ/~~/!Q~!~!!!^!!~~~(~!/^!!!^^^!!!^QQ^(QQ",
"~Q!QQ~~Q~QTQ//~~~~~~!!^~W^^!!E~!!~~~(!RW!^/~!Q!/QQQ!QQ",
"!~QR~~~Q~~QUR~QQ~~^^!~~~W!)EE~!EQ~~!!WIY~!!^!T!!!!RQQQ",
"Q/QET~~~~/~ETQQ!~~!!~~~~!!!!E!W~!!/~~/QR!!!^~!!!/!QQQ!",
"/!T!Q~!!!!~~!W~~!~~~^~!!~WWW!~!~!!!!!~/QW!!~^!E~!QQ/!!"
};
