/* XPM */
static char *result[] = {
/* columns rows colors chars-per-pixel */
"54 54 50 1 ",
"  c #020202",
". c #080808",
"X c #131313",
"o c #1E1E1E",
"O c #222222",
"+ c #282728",
"@ c #2C2B2C",
"# c #353435",
"$ c #373738",
"% c #383738",
"& c #3B3B3B",
"* c #403F40",
"= c #434344",
"- c #474748",
"; c #484748",
": c #504F4F",
"> c #5D5C5D",
", c #605F61",
"< c #646364",
"1 c #676768",
"2 c #6D6C6D",
"3 c #757475",
"4 c #797778",
"5 c #7C7A7B",
"6 c #817F80",
"7 c #858485",
"8 c #8C8B8D",
"9 c #908F91",
"0 c #949294",
"q c #9A9797",
"w c #9C9A9D",
"e c #A09EA1",
"r c #A6A3A5",
"t c #A9A7A9",
"y c #ACABAE",
"u c #ADACB1",
"i c #B1AFB2",
"p c #B4B2B5",
"a c #BAB5B7",
"s c #B6B5BA",
"d c #BAB6BA",
"f c #BDBABD",
"g c #C1BCBE",
"h c #BEBCC1",
"j c #C1BEC2",
"k c #C4C1C5",
"l c #C8C4C6",
"z c #C6C4C8",
"x c #C9C6C9",
"c c #CAC8CB",
/* pixels */
"jffkckkfkkggggfgggkzzkkhffkkhhhfhjkkkjffkgggfkljgkklgf",
"kkfsjghkggkgffffgkhkjkkhffhhhkffhkffhffsdaggkklkgklgff",
"kffffgkkgkjkhdgkkhhhfjkfsfhfhkhkzzkkkjkkgglgkkjjgkkafj",
"kkkhgkggkkkkgfgkkkkzkkkhhhkfhckhkzggfsfkggklkkkkkafggg",
"kkkkjfffkjklkgjgkzzzkkkkkzkhhzhhgjfsfdgkffjkhafkkgfdjf",
"jgkkgfzzkkjgjkjgkzkhjkjkkkhkhkkkkgfgggkgjjgfppkkjkjggf",
"kjzkjfjjgglgjllkfhjfkhfhkkhkkzchkllgglglgkggsffgfkkkdg",
"kjkjhzkfajkggkkkfkkkjkkkzkhkzchklkxgfggjllggfgfgkkklfd",
"cjkghzzhshkklzlfjckj989000005tfzkkq90099095ww80q09907r",
"ckjjhkzzhkjklljjzcz=    ..  Xfafhf        Oe         >",
"ckkjkkhkjggfkkhhhz% ...... #kgffsfo .... @jh  ...... 3",
"ckkfhkkhjlkffkkkk& ...... *kjgjgffo ... +hju. ...... 3",
"kffhhkkkkkkkkkkz& ...... &kzjgjjjjo .. #jkju. ...... 3",
"hhhkkshkkjhkzzc$ ...... $zzkjkzjkjo . Ojkkhp. ...... 3",
"zhhhhhskjhkkjz* ...... $zhzzkhkfhho  +jkkkkp. ...... 3",
"chshkhhhhhhhj*....... #izjhhsszkhfo +fzkhkjp. ...... 3",
"zhsuhhhkkhjj& ...... #hszkhhhhzzjj Xjhgjjjji. ...... 3",
"zkhshkjkkkk# ...... &hhjzhhkzhhzjy&jjhjjjlkh. ...... >",
"zhhhhhkkhk# ...... $jhzjhhhzzkzhjjljzjjjkjzp  ...... 0",
"zzkkkhhjh& ...... $kjzxhhhhzjkzjjjjjghzjjjho .....  5f",
"zkkhfjkk* ...... $hhhkfhzjjjhkkkgdjjfgjklj  .....  3gk",
"kjkssfk& ...... %shffjgkjhjhhkhhjajgdgjlj  .....  5sgk",
"kkjdff& ...... &kfkkfkjckkkkzjhhjdgjjjjf  .....  6dglk",
"kfgsf& .... . &zkkkkjhjkkkxzjjjhafjaggf  ...... 6lgjck",
"lgff& ...... @hkzkhkjffhhjzzjjkjdgffff  .....  4ggglgg",
"xkg$ ...... #khhhzkkkkkjhkkzjzljllkkh  ...... 4ggfggpa",
"hh& ...... =sjjhkzkhhhkkzhkzjjjjjjgf  ...... 3fpgkfffg",
"l= ...... <jgjkkcxkjhfkkhhhzjggjggj  ...... 7lzjjjgggg",
"1 . ..... ,3><<<<1<<<<<<<<,<,6gggjX ... .. #fjzkjllkgf",
"< ........                   OgggfX ...... =hkjpflkf1*",
"2 .......................... ;fddjo ...... &zxkjhfs9 1",
"1 ......... ................ ;lghfo ...... &zkkkff0  3",
"2 .......................... -jzkfO ...... &kkkhf0   3",
"2 .........................  -jjsfo ...... &jfhh7  . 3",
"1  .              . ........ -jkhfo ...... &hhh9  .. 3",
">                   ........ -kkzho ...... #hh0  ... 3",
"dyuiissuipaipspppppio ... .. -jkkjX        #kw       2",
"hfhhshhhflgglkggjkljO ...... -jlkfX    .   :0        2",
"zhshhsshkklkllgjkzhhO ...... ;jjhjgffjhsfjgfshhhjfjjhj",
"khhhhhssjkgflljlkgjkO ...... -kxkklfffgpjkkgjjhhjjkjjz",
"kkhfkfkjkkfgkjlkkgfkO ...... ;kjjjjjdgphkjjhjkzhhhzzjz",
"khhkkkhfkjflkklgfhhhO ...... ;kklljjjggjkhkjjjkkjhhjkj",
"hfkhfhkhjpalllflkkhkO ...... -jkkjkxjjfjzjjhkkfkhhhhjj",
"zfhfhhfkgafjgkgggkkkO ...... -jjjjkkxljzkjhkkkhhhhhhjz",
"lhghhhkfjkgfjgkifkgk.        &kjjjljlkzxhzhhjzkhhhhhjj",
"chkkkkkkjkjkllgffkkk@.XXXXXX.:kjjjjljfjjkhhhjkzhshhhhj",
"ckkfjkkkklkkljggfkzkjfhfsffjjhgjjjjjhjkzkhhhhkhhhhhhhj",
"zhffjzkkhzkjglgkkhhhhfhjkkkkkkgjjjlljdzzhhkhkzkhhzzhhh",
"gffhhhkhfhkhhfhkfhkkkhhzljlljhkkljjzjhjjgjjjjjjxjhlzhh",
"hffsfhhfhhhzkhhzzkzffkjkjjjlkjkklczjzljjjjljjzjljhjlhs",
"zhjhhkkhkfshzkkkkkzzkjkkgllkjfkhjjzzljagjzzljhjjhhhjhh",
"jjhfkkhkkkhpfkhhkkkljjkkgjcgfkhfhjjjjjialjjljsjjhjhhhh",
"hzhdskkkkzkddfhgkkjjkkkkkgkgfgfkjjzkjlhdjjjljjhjjjjjhj",
"zkdhhzjgkhzjhkkkkkkklkgkkffggkkkjjhjjkxhjjjjljhzzhhjjj"
};
