/* XPM */
static char *result[] = {
/* columns rows colors chars-per-pixel */
"54 54 66 1 ",
"  c #000000",
". c #070708",
"X c #0A0A0A",
"o c #181718",
"O c #1D1C1D",
"+ c #242324",
"@ c #2B2A2B",
"# c #333233",
"$ c #373738",
"% c #383739",
"& c #3C3B3D",
"* c #403F40",
"= c #434243",
"- c #474648",
"; c #4C4B4D",
": c #514F4F",
"> c #504F50",
", c #535253",
"< c #585657",
"1 c #595758",
"2 c #5C5B5C",
"3 c #5F5F61",
"4 c #656365",
"5 c #676669",
"6 c #686669",
"7 c #6B6B6C",
"8 c #6F6E71",
"9 c #706E71",
"0 c #747274",
"q c #797779",
"w c #7C7A7D",
"e c #7F7E81",
"r c #858385",
"t c #888486",
"y c #87878A",
"u c #888689",
"i c #8C8A8C",
"p c #8F8D91",
"a c #918F92",
"s c #949295",
"d c #979699",
"f c #9A999D",
"g c #A19B9F",
"h c #9E9DA0",
"j c #A19FA1",
"k c #A5A2A4",
"l c #A9A5A7",
"z c #A7A6A8",
"x c #A9A6AA",
"c c #ADAAAE",
"v c #B0ACAE",
"b c #ADABB0",
"n c #B2AEB2",
"m c #B4B1B5",
"M c #B9B4B6",
"N c #B6B5BA",
"B c #BAB6BA",
"V c #BDBABD",
"C c #C1BCBE",
"Z c #BEBCC1",
"A c #C1BEC2",
"S c #C4C1C5",
"D c #C8C4C6",
"F c #C6C4C8",
"G c #C9C6C9",
"H c #CCC9CA",
/* pixels */
"ZVVSHSZZCSCCCCVVZSSSHASAVVSSZZZVZASASZVVCCVCVSDACSSAAV",
"SSVNSVASCSSCVVVVVSSSASSVNVZZSZZZAAVZZVVVBBCCSSDACDDCCV",
"SZVVVCSSCSCSVVVSSSVZVSSVVVVZZFZZFFAAAAAACCSDFAAACSSMVC",
"SASZASCCSSSSSVCSSSSSSAAAZZSVZFZSSGAAVVVGVCSDSSSSSMVCCA",
"SASSAVVZSSSHCCCCSFFFSFSSSc3hZFZZCABNCCAAVVSFVMASABBVAC",
"SASSCCSSCSCCSASCSSZSAAVAS# #SSFZAACACCAAACCVmMSSASSVVV",
"SASSZZSACSHCSSSSZSZZSVVSN...pFFZSDDCCCCDSDCBNVCCCSFSBV",
"CSFZZFSBMCSCCSHAZZZSSSFSc...=SSFDSDCCCCADACCVVVVSSSHMV",
"SSSVZFFZNZSSSFFVSGSSZZZFp   iZCDAAAASAACDAAACCDHACADBn",
"SSSCZFFFZSSSHHCAFHFFSZZShX+dFZBVAZZZFAAAAAAZACCCDAABMA",
"FSSCFSSZACCVSFZZSSSZZFZSSZSSSCVBNAZAAAAACAAZACnNAAACVS",
"SSSVZZFZADSBVSSZFSSSZZSZSy#1CCACAAZAAAAAAAAAZMADDSCCZZ",
"VVVZZSZSFSSFASSFFSZFFSZN=   $vAAAAAGAAAAAFAZZnADDDGZSS",
"NZZSZNZFSVZFHSFSZSZFZZx. @O$ =SAAAGGAAAAAAAAAAFAAAFFSS",
"ZZZZZZNSZZFSZFSSFZZZZZf@se dhpSZAAACAAAGAAAFAAAASSSFSF",
"FVZVSZZSZZZZSFSSFZZZZSnmF5 sNNSSAAACCCGASFASZZZZFSZZSS",
"ZZmbSZZSZZZZFFZZFFFZFFBNF, fZVFFAAFSABCCSAAAAAAZAAAAAA",
"ZFZNZSZSZFFZZZZFZSZFZZZFF; VFZAFAAGFAAAASSFSAAAAAGAAAA",
"ZFSZZZSSZFZZFZFZZZZZZSFAZ+ eFSSSAADGSSAASSSSAAAAAAAAAA",
"ZFZSSZZZZZFZZZZSZZFZSGGu@.. =kFZAAAACASSASZVADDAAAAAAA",
"ZFAVVZSSFZZFSZZFZZZZZZN  @d= #SSCBAAVCASSFACADDGGGAAAA",
"ZZZVBZFFZFZFFAZAZZZZZZV0O *f#aZZCNCVBCASDDACAAADAGAZAA",
"CAZVZBZFZZZFSZZFZZSSZASGA84ASZZZCCCCCCSSSSACCAAAAABAAH",
"VZVBZZZAZZZZSZb+-ZZFZZSSSSGFSAAZNVABCASSSADACAAAAAAAHH",
"SVVVCASZVSVVSS7  AZFAAZZVSDSAAFABCCVVAAASACDCCAAACCDCC",
"SSVVSCSSCFSVZS- .hASAAAZSSSFASDADDSAAAVADHDCMMCCCCCCMM",
"ZCSSAAFSSASCVS$  iAZZZFFFZSFAAAAAAAA1-SSCDDCBVBNAACCCC",
"SVCCCCSVAVCSVZ4 oZAAZZAFZVZFACCACAA>  yCCCCBCDFAAAACCC",
"AVVVASVVSCCCgBBqzFAAFZAZZZZAACCCCAk   &AACCBZADSADGACC",
"CAZSFSCCDDDs :MMAFAAAZAq@mAd+gCCAA2   OSCDACAAZnAHACCA",
"SAASSDCVDDA2 #CDDFAF&5Ah4ZSc6lBBVS7  X8ZCDDSFGAZVZVAAD",
"VSAAVSACCCC# 4ADAAFA5rZFZAAAADAAZAV8eBqyCCCSFFFSVBASCC",
"SSFSZZFZZSmX qVCAAAAAAZZmZFw=ZSSSAGFZy  9CASSSSZZZAAAA",
"VZZZZFFZMZu  @CVBACAGANZZNSr>ZfpNAGAx    2SSZVZZZZAAHA",
"VVZSZZZZmV< = &VBBCAANBZihZSSZ;%ZZSZO     7ZZZZSAZZAAH",
"SZZSFZSFVVOXV4 &CCADltAS@3ZSZSmmFZA@ 5& o %ZZZZZAAAAAA",
"SVZZZZZZZc *DH= uDSA0OVZbBz0NZAGFS* 1SA;  5SSSZZAAAZZF",
"ZZZZZZZZVk =DSCtcSSCmlSSFSr+bSASSm.&SFZr .zZZSSZAAAZZF",
"ZZBZZNNZSS+ mDCASSVSSSSV8hSSGSAAZZcAZFA+ zSZZSZSGAAGZA",
"ZZZZZNNZSSi ;SSFFCAFFSAm+rS4zs*ASGDBVZn %SSASSZZAAAAAF",
"AAAZAZACSSB+ vSDCAVSFFSSZSB#id;VAAAABCi O0kZZSSZZAFFAF",
"VZZAASZVSACt 0AAVSZZZZZZFFZSSVSSDDAACAl+  +AAASSZZZAAA",
"VBAZZASAAnVD.#CDSSSSZVVm8zVASSASAASGSAAZjeaASSZSZZZZFA",
"CZZCZZZAmtukO MCVSSSSSSjOsBVSSj-xDSSDDADSAZASSZZZZZZAF",
"AZZAZSZZs     jvVFVZSGFSASAZSAg#lAAAAADHFFZZZSSZZZZZAA",
"SZASSVSSBe62,0ABVSSSZZSFAZZFSSSAAAAAAVAAZZZZSSFZZZZZZA",
"FSABSFSSSSAFDDACSSSFZVZZVVZFSAVAAAGAAAFFSZZZZFZZZZZZZA",
"FCZZSGSAAFSACAAAZZZZZVZSSSSSSAAAAAGAAZAGZZZZFFZZAFAZZA",
"CVVZZZSZVZFZZZZZZZSSZZSSDADGZZSSAGFGAAAAZAAAAAAHAAGAZZ",
"VZZNVZZVZVZFSZZFFSSSZSSSAZSDAASDGHAAAGAAAHAAAAAAZZAAAZ",
"SZZZZSSZSZNZFSSSSFFSAASAZDGAAZAZAAAHAABCGAGAAAAAZZZAZZ",
"CSZVSSSCSSVNVSZZSSSDSASSVSHCVSZVAAAAAAvCAAAGAZAAAAZZZZ",
"ZSVVVZSSSFSNNVZSDSAASSFSAAACVACSAAHAAHANAAAHAAAAAAZZZA",
"FSNCZSZSZSSSZSSSADASDSCSSVCCZSASAAAAAAAZAAAAGAAAAAZAAA"
};
