/* XPM */
static char *result[] = {
/* columns rows colors chars-per-pixel */
"54 54 74 1 ",
"  c #000000",
". c #080707",
"X c #070708",
"o c #0C0C0C",
"O c #141415",
"+ c #1A1A1B",
"@ c #252425",
"# c #272728",
"$ c #282729",
"% c #2A2A2B",
"& c #302F30",
"* c #333233",
"= c #3C3C3D",
"- c #403F40",
"; c #434244",
": c #484648",
"> c #4C4B4C",
", c #504E4F",
"< c #4F4F50",
"1 c #504E50",
"2 c #555355",
"3 c #575659",
"4 c #585759",
"5 c #5B5A5B",
"6 c #5F5E60",
"7 c #605E60",
"8 c #646264",
"9 c #686666",
"0 c #676669",
"q c #696769",
"w c #6C6B6C",
"e c #706C6E",
"r c #6F6E71",
"t c #706F71",
"y c #747376",
"u c #7A7779",
"i c #7C7A7D",
"p c #807D7F",
"a c #7F7E82",
"s c #858386",
"d c #878588",
"f c #898789",
"g c #8B8A8C",
"h c #908C8C",
"j c #8F8E92",
"k c #908F92",
"l c #939194",
"z c #97969A",
"x c #9A9799",
"c c #9C9A9D",
"v c #A09C9F",
"b c #9E9DA1",
"n c #A19EA2",
"m c #A5A2A4",
"M c #A9A5A7",
"N c #A7A6AA",
"B c #AAA6A8",
"V c #ACAAAD",
"C c #B1ACAF",
"Z c #AEADB1",
"A c #B2AEB2",
"S c #B5B2B5",
"D c #B9B4B6",
"F c #B6B5BA",
"G c #BAB6BA",
"H c #BDBABD",
"J c #C1BCBE",
"K c #BEBCC1",
"L c #C1BEC2",
"P c #C4C1C5",
"I c #C9C4C6",
"U c #C6C4C8",
"Y c #C9C6C9",
"T c #CBC8CB",
/* pixels */
"LHHPTPLJPPJJJJHKKJPYUPPJHHPPKHKHKLPLPLHHPJHJHPIPJPPIJH",
"PPHFPHKPJLIJHHHHKLLPLPPJHHKFKPKHPLHHKHHFGGJJPPPPJPIJHH",
"PHHHHHPILJPPJGJPPKKKHLPSa>O O*8NUPLLLLPLJJIJPPLLJPIDHL",
"PPPKJPJJPLPUJHJPPPPPPPZ+X O&+   =HLLHHHUJJPIPPPPPDDLJJ",
"PLPPLHHHPPPPLJJJPYPYPP;X5NPHKFg& $HDHDJJHHLIKSJPPJHHLH",
"LKPPJHUUJPJJPLPJPPPPPVX*PPPPPPPP8 eJPJIIPJHHSSPPLLLJJH",
"PLUPLHLLJPUJJIIPKPKHPa.yPPLPPUUKJooJJPJILIJJFHJJJPPPHH",
"LLPLKUPHDJIJJPULKKKPP5XmUPJPIIPPI8 lHJLLILJJHJGJPPPIGG",
"PPPJKUUPFKPPIUUJPYPPK= VUUPPPPHPP7 cPLLJLLLLJJITPJPPGS",
"PPLPKPPUKKLUUULLUTUPU5 >PUPjjKGHLOoHPLLJLLPKLPDJIJJHDH",
"UPPJPPKUJJJJPIPKKPUPKF+ sUi  pHGy 6HLLLJLLLKPJADJPJJGP",
"PPPHKUUKJIPHJPKKPPPLKLZ +u #@ xLXXALPLLLLLLLJDJYILPJKK",
"HHKKKPKKUPPPPPPUUPPPUPKj  XNM..O sLULILLLYLKGSKLPIUPKP",
"FHKPKFKUPJKPYUUUPPPPKPPl    o.  7IYULLLLLLLLPLUUPPUUPP",
"PKKKKFFPPKPPKUPKPKKKFLz ofi;&38 OALJJLYLLLLULLLPPPPPUP",
"PKFKPPKPKHKKPUPPUKKKPc  bPKPFFPf oCJJJULLUPLLKKKPPPKPP",
"KPFZPKKPKKKKUPKPUPUPm  jUPKKKKPUa +HLGJJLPLLLLKKKPKPPP",
"KPKFKPKPUUUKKKKKPPKNX jPUKPPUKKULy $LLLLPPPPLLLLHPLJJJ",
"KKKKKKPPKUKKKPUPKKbX fULKKKUUUUKLLw *PPLPLPPJLLLLLPJPP",
"PUPKPKLKKKUKKKKPKZoXdUYKKKKPLLUPLLL5 =PLLPKLLPPLPPLPPH",
"KPLKHLPPKKPKPKKPFO aKLJKULLLKPPLJHLL1 :PPUJHLIIIPPUHLP",
"KLPGFHPUKUKUUKKH+ yKKLLLLKLKKPKKLDJGG; 3YIIJLLLIPPPHJP",
"HPKHHHKLKKUUPKH@ rPPKLLYPKLUPPKKLHJJLL= 7LLJHLLLLPFJIP",
"JJHFKKKKKKKKPH# fKPUKKLPPUTPPLLKDHLGJJP; wILJLILLIJPTI",
"PHHHJLLLHJJHA% =mkdfdsddsfgfddfdsssssscdo wILJLPLJJIJL",
"PPLHLLPPPPPH3                             2JSDJJJJJJSD",
"KJLLPJPIPHPJc8rrwrrwqwtrrrrrewweeewwwewwelLJHHGSJIGJGJ",
"PHJLJJJJPHJPHKPPTTPLKKPUKKKULJJLJLPPPIPLJJJHJIPPJLJJLJ",
"KHJHJPHHLJJH72w9qr9ww099000qw99q99wwwwqwq7hHHPUPLIYLJJ",
"JHPPUPPJIIIm                              &JKPKSJYLHLP",
"PPKPPIJHIILm *vlxlkljjlljjlkkhggglljjllxi -PPTPKHHHPLP",
"HPKJHPPHJLJB 4JIJHUPPLLUKPPLLLPPKKPKFHPKS -PUUPPHHJIJJ",
"PUUPKKUPKPPM >HJJLVBPPKKFFUUKKPUULUUKKKKZ ;PPLPKKKLPLJ",
"HHKHKUUKFHPM >LHC:X 8PFHKFPYKKLLFKH9<uKKZ ;PKKKKKKLIIP",
"HFKPKKKKSGIV :PH>    uHKPKKPPKPLKKy   yPZ ;KKKKKPKHLPP",
"PPHPUKPUFHLM >II@    gKPKPPPKPLPULk   OPF ;KKLKKLPLPPL",
"PKKKKKUKHJIm 2PDO  ogYPKPUPPKPPUUPA3#  ZK ;LPPKKPKLHLP",
"PHKKKKKKHILM >JCo o;*8PPUUKPPPLPPSOX2o lU ;KKUKKPLJSFU",
"KKFKKFFKPPPB >JSo -+  xPPPPPUPLLKi  &% uK ;LKPLLPLLILL",
"KKKKFKFFKPPm >JP+ =O  xLKPPPUUIIPx  =O qL ;LLUKKLLILPP",
"KPKHPHPLPPHm >II* %5o3PPLLLLLLUPLLm5O  tU ;LKPUKKPPLLU",
"HKKPPPKHPPJB >PJ:  $yKHPUULLKLLPUPA@   sP ;LLLPPKKKPPP",
"HGPKHKPKKSGV ,JIt   XmGPLKKLULLLPL3    nU ;LPPKPKKKKPP",
"JHKHKKJKJGHm >JJL#   cPPLKGKLULLLLxo  :UF ;KPPKHKKKKKP",
"KJKPLKPKLLLn >LAHM3>uUPUYLLKPLILLLInekPIZ ;KPPUKKKKKLL",
"UKPPPKPPLILB ,PHHPPPKLPPLLKUPLPLLLLILJLLZ -KKPUKFKKKKK",
"UPHHPPPPPIPV 5JLKPPPLHKKKKKUILJLLLLLLLLUG ;KKPKKKKKKKL",
"UPHHLUPPKUPx +755455335545555545555754501 =KPUPKKUUKKL",
"HHHKKKPKHKPl                              ;HLULUKLUPGF",
"LHHFHKKHKHKKdfbbbcccxxccvxcvcxbcnnbxcnxxxvHPLPLYKKUILK",
"PHLKKPPKPHFKUPPPPPPPLLPPJIYLLKLKLPPUPPGHLYUPLLLPKGKLKK",
"KUKHKPPLPUKSHPKKPPPYPPPPLLYJHPKHKLPLPLSDPLLYKSLLLLLHKL",
"KPKFHLPPPPPGGHKLIILLPPPPLLLJJLLLLLUPPPKFJLLIPJKPULKKKL",
"YPGPKPKLLPUPKLPPLILPPPJPLJJLLLLLLLKPLPIKJLLPIPHPPKKPLL"
};
