/* XPM */
static char *result[] = {
/* columns rows colors chars-per-pixel */
"54 54 66 1 ",
"  c #000000",
". c #080707",
"X c #0B0B0B",
"o c #0F0F10",
"O c #121213",
"+ c #1B1B1C",
"@ c #242424",
"# c #282728",
"$ c #2C2B2C",
"% c #343334",
"& c #373738",
"* c #3B3A3B",
"= c #3F3F40",
"- c #403F41",
"; c #444344",
": c #474648",
"> c #484748",
", c #4C4B4C",
"< c #504E4F",
"1 c #514F52",
"2 c #535253",
"3 c #575658",
"4 c #595759",
"5 c #5D5B5C",
"6 c #5F5F61",
"7 c #605F62",
"8 c #636264",
"9 c #666569",
"0 c #6C6A6D",
"q c #706D6F",
"w c #706E70",
"e c #747275",
"r c #79777B",
"t c #7D7B7D",
"y c #7E7D80",
"u c #807F82",
"i c #848285",
"p c #8B8A8C",
"a c #8E8D91",
"s c #918F91",
"d c #949295",
"f c #999797",
"g c #9A979A",
"h c #9C9A9D",
"j c #9F9FA2",
"k c #A29FA1",
"l c #A4A2A5",
"z c #A6A6AA",
"x c #A9A7AA",
"c c #ACAAAD",
"v c #B1ADAF",
"b c #AEADB1",
"n c #B1AEB1",
"m c #B5B2B5",
"M c #B9B4B7",
"N c #B6B5BA",
"B c #BAB6BA",
"V c #BDBABD",
"C c #C1BCBE",
"Z c #BEBCC1",
"A c #C1BEC2",
"S c #C4C1C5",
"D c #C9C4C6",
"F c #C6C4C8",
"G c #C9C6C9",
"H c #CBC9CA",
/* pixels */
"AVVSHSSVSSCCCCVZZZSFFSSZVVSSZZZVZASAAAVVACVCVSDSCSADCV",
"SSVNSVZSCASCVVVZCSZSSSSVNVZZSZZVAAVZAZZMBBCCSSSSCSDCCV",
"SVVVVVSDCASCZVVSSSZZVCSVVZZZZFZZFFAAAASACCDCSSAACSDMVA",
"SSSZASVCSAFHCVCSZSSSSSSVZZZVZHZSSGACVMZFVCSDSSSASMMACA",
"SCSSAZVVASSDSCCCSFSFSSSSSSFZZSZSAABNCMCAVVAGZmASSVCBAV",
"CZSSCVFFCFCVSSCCSFSSSSSSSSSZZFSZACCAACDAASVCmmSSASACVV",
"SSFFCVCCCSDCCFFSZSZVSVVSSSZFSFFZADDDCDCDSDCMNVCCCSSSBC",
"ZSFCZFFVMCSCCSFCCZZSCSSSFSZZFHZFDSDCMCCADSCCCVBCSSAGVB",
"SCSCZSSFNZSSSHSCSFSSZZZFSFSSFZVFFAAAFAACAAAACCDHSCADVv",
"SSSSZFSFZSASHSCSFHFFFZZZSFSHFZMVAZBZFAAAAASZACCCDCCVmC",
"FSSZSSSZACCCSSSVZFFZZSZFFFSSSVVVBZBAAAAAAAZZACnMCSCCVS",
"SSSVZSSZASSVVSSSSSSSZZZFZSSZCCSZAAZAAAAAAASACMVGSSACZZ",
"VVZZZSZSDSSZSSSSFFZFFFZZSSSFSVSCAAAFAAAAADAZVmZSDzmAAS",
"NVZSSNVSSCSSFFFFZSzhZSFZSSFSSSSVAGGGADAAAAA<OdSS0 +SSS",
"SZZZZi.*SVFFSFSFAZ@ eZFZSZFFSS&.uAACCAAAAAAw  ,A3 #SSF",
"SZNZSa +ZVVZZFSZFV+ 8ZmbFSZZNN@.7AACCCFFAFAFc# oekZZSS",
"SSNndhzbZZFZFSZZFFzrZFZZZZZZZZNaZAASABCAAAAAAAt  9ZAAS",
"ZSVe XNSFFZZZZZSSe6ZZZZSFZZFFj=zAAGFAAAAADFSAAAnO &mCA",
"ZSi   eSZZZZFZFZx. aASFZFZZSZ@ &AADFFAAAAFSSAAAC@  5SS",
"SS%   ohZZFZZZZF:  8SFGZZZZZ# .  uAACAFAAAZAAADx :llSV",
"ZD>    =FZZFZZZz   OsSVZFAA;  X. $AABCASSFCVADDa 0DVCS",
"ZZm51thlZFZFFAAZ@   XbCSAA8    :kgCCBCAFGADCAAAe pSVCS",
"CZSBN,yFZZZFFZAAs +sdVSDSS-  . :ACCCAAASDAABCAA% cBCDS",
"CCVB: @ZZZZZAAZFF, lAZSSSSB=   :BBABCASSDAcq;@  OBCSHG",
"SZV>  +BVACVCFAFG0 aAVAZVSFS2  yCCCVVAAADA;  .*@ tCDDS",
"SN@ 2, zVDFVCSAZZ1 lSSAAZSSFp XMCDSAAAVAAHhygmCc #MDvM",
"Ca 5Se sSAACVZSZF= cZZSSFZSFi @AAACASSASDDDCBVBNtqBBMC",
"SMvSCd eAVADVSCSF*XAZVSFZZZFd ;ACADSADSACCCMCDFSAAACSC",
"CVZMp> %CCSCCCCVp@XeZVZZZZNi; +fCAASDSh03%2MZZFSVDDDCC",
"VZSi    5DSCDSMq    yFSZBZz. . $ZZSFFZ@    fZSSbCGAVCS",
"SSAt    >DDCCDC*    eZSFZZbo   #VSSZZmO    dFHSSVVVSSA",
"VSZp    <CCCCDA*    iAZFZFmO   %ZSSZNN+    pSSSSVVVSCA",
"SSFd    ,AAADAC;    pAZZNNmo   %SASSZN@    iSSSZZZASAC",
"VVZg    >CSAAAC>    dSNVVNbo   &NAGSFZ@    tAVZZZZADDS",
"VVZj    ;VSHCCA<    dNVZSZz.   &ZZSAZF#    wZZZSFZBAAS",
"SZZz.   :MADCCD4    hZZSZSlX   &FZFSAF#    0ZZZZAAADSS",
"SZZzX   ;SSCDDA5    lGSZFSl.   *FFFAAF$    8SSZZAAAZZF",
"SVZbo   ;DCCADC5   .lSSSFFh  . %ZZAAAF#    3ZFZZSACmmF",
"ZZNN+   *SDDDDC8   onSSSSSh    ;AAACZF#    ,ZSZADAAFAA",
"ZZZZ8XO.wSCCDDAx%$*tGAAAZSV2$20nSFDBBAe+#@#sAFZZAAAAFF",
"SZZZSNcmSDBCDCDDACAZFFSSAAFAAASSAAAABCmZFASAZSSZZZZAAF",
"BVSZZSSVSVBDDSAAVZZZSZBSFFAAZASSFDAACCCAFVAAAASSZZZFAF",
"VVZSZSSSSmBDDDVDSSSSZZBFSVBASFASAASGSAVAFAAZSSZSZZZZAA",
"VVZVZVVSVBCCCSACZASSASSSAVZBSAAAAASSGDAFAAZSSSZZZZZZAF",
"ZZCSZAZZADABCSAvVSCAAGSFFFAZSASAAADADASGFSZZSFFZZZZZAA",
"FZSSSASSAAAASDSVVSSSAAAFAAZFSSSAAAADACASZZZZZSFZZZZZAA",
"FSCVAFSSSGSFDDCCASSFZZZZVZZSSSCVAAAAAAAFFZZZZFZZZZZZZA",
"SZZZAFSSZSSACACAZZZZZZAAASFASSVSADADABDFZZZZFFZZZFFZZA",
"CVVZZZAZNZFSZZAZAZCFAAAFDCSSACSSADAFACAACCAAAAAFAAFAZZ",
"VZZNVZZVAVZSSZASFZFCZAZSSCSDDZSSFHFAFFCAAAGAAAAHAZAGAZ",
"SZZZZSFZSZNZFFASFSFFASFCCDDSAVZSAAFFGABCAFFAAAAAAZZAZZ",
"CFZVSSSZSSZmVAZZSCFFAASFCSHVVSZVZAAAAAnMGAAGABAAZAZBZZ",
"ZFZVNSSSSFSBBVSCSSSAFFFAAACCVAVSAAFAAHANCAAGAAAAAAAZZA",
"FZVCZSCZZSFSZZSSSDSAFACADVVSCSSAAAAAAAFZAAAAFACFAZZAAA"
};
