/* XPM */
static char *result[] = {
/* columns rows colors chars-per-pixel */
"54 54 76 1 ",
"  c #010101",
". c #0B0B0B",
"X c #100F0F",
"o c #0F0F10",
"O c #141414",
"+ c #181717",
"@ c #1C1B1C",
"# c #1F1F20",
"$ c #201F20",
"% c #232324",
"& c #272728",
"* c #282728",
"= c #2B2A2B",
"- c #333334",
"; c #383739",
": c #3C3B3C",
"> c #403E3F",
", c #403F40",
"< c #444344",
"1 c #474749",
"2 c #484748",
"3 c #4C4B4C",
"4 c #504F51",
"5 c #545254",
"6 c #565558",
"7 c #595759",
"8 c #5C5A5C",
"9 c #5F5F61",
"0 c #605F61",
"q c #646365",
"w c #676669",
"e c #686769",
"r c #6C6A6C",
"t c #6F6E71",
"y c #716F71",
"u c #737274",
"i c #777678",
"p c #78777B",
"a c #7B7A7C",
"s c #7D7D80",
"d c #817F81",
"f c #848285",
"g c #888587",
"h c #86868A",
"j c #89878A",
"k c #8C8A8C",
"l c #918E91",
"z c #949295",
"x c #989697",
"c c #97969A",
"v c #99979B",
"b c #9C999C",
"n c #A19D9E",
"m c #9F9EA1",
"M c #A19EA1",
"N c #A5A2A5",
"B c #A9A6A7",
"V c #A6A5A9",
"C c #A9A7AA",
"Z c #ACAAAD",
"A c #B0ADAF",
"S c #AFADB1",
"D c #B2AEB2",
"F c #B5B2B5",
"G c #BAB5B7",
"H c #B6B5BA",
"J c #BAB6BA",
"K c #BDBABD",
"L c #C1BCBE",
"P c #BEBCC1",
"I c #C1BEC2",
"U c #C4C1C5",
"Y c #C9C4C6",
"T c #C6C4C8",
"R c #C9C6C9",
"E c #CBC9CB",
/* pixels */
"IKKUETIKULLLLKKILPTTTUUIKKUPPPPHPIUIUIKKULKLKUYLLTUYLK",
"UUKHIKIULLRLKKKKPPUUIUUKKKPPUUPPIIPKPKKJGJLLLTYULUYLKL",
"UKKKKLUULULUIKLUUULPKUUKHPKPPPPPTTIIIIUPLLYLTUIILUUGKI",
"UUUIIULLUYUYLKKIPPITUUUPPPUKPETPUTIIKKKTLKTYUUUUUGGILI",
"UUUUIPKKUUUYULILUETEUUUUUUUPPTPPLIKGLGLIKKITKGKUUKGJIK",
"IIUUKKTTLULLUUILUTUPUIKIUUUUPTUUULLLYLYIIILLFFUTIUULKK",
"UIUUIKLILUULLURULPILUPKUUUPUUTEUUUYILULYYULLHKLLLUTUJL",
"IIUIKTUKGUULLUUIPPPUIUUUTUPUTTUPYYYLGLIIUILLKKGLUUURKG",
"UUULPTTUHLUUURRLUTTUPPPTUTUUUUKUTIUIUUILULIILLYEULUYGF",
"UUUIPUTTPPUTRRIITTTUTPPPUUUTTPHKIPHPUIILLIUPLUGLYLLKFL",
"TUULUUPUILLKUUIKPTUUPTPTUUUUULKKJPKPIIILIIPPULFFLILLKU",
"UUUKPUTPLUUKKIUTUUUPPUTPUUUULPUPPIPIUIIIIIUULGLYYUILKL",
"KKKPPUUPTUUUUUUUTUPUTPPPUUUTULIUIIITIIIIIUIIKFKUTYEPUU",
"HKPUUHPUULIURTTTUUUTPTTTUTTTIUUPUYTTIYIIIIIIULUUUUHUUU",
"UPPPcSKUUh8HLUTchPPPHPUUUPUUPUUPIIILLIu&mUTH-&HUIZO=KT",
"UPH4 %SPKo aIEK..SPPPTSSUUPUHHUUIIILGG  #IT<  hKUh  ST",
"PUv   VTP  lTPF  SUUTTPHUTPPPPUTTPUUIDO %II& 2ZPIz OKU",
"PTS# <PUPs9PUPPOoIPUUPPUTPPTTPPTIITTUIbkFUTMbIIIKKpnLI",
"PIPStFUUPTPPPPTNSPPPIITIPPPTTUTUIIUYUUUIUUUULIIIIUUDYU",
"UTTPUPPPPPTPPPPTPPUPUTTPPPPUPUTPIUIUKLFzIUPK20UUUU:XUK",
"III:aIUUPhqPUPPSosPPIPKPTUIUUIUUKKIIJLy MTLK $YUIP @LU",
"IIf .apisO 9uqr3 #q866554331<1<,>:::;:% +;-=  **&&  rT",
"Ld                                   ..  ..o  OX+    p",
"PO.7 <lhla &bzzm& zNbvnNNNZCZZCZNCACDF+ CIUf 8IYZ.-Z@3",
"g qK.*UUKU#.IUPUq ZIIPIPKURUIIUILLLLKw uYUI= AUL2 xYGF",
"- ZK> mULTq lUPPf rIIUIPIUUUUUYUYLIIS =PIYz 2GLF :LLFG",
" %IIj rTUKC 8PUPH.4PPPTTTPUTILIIIYIbX uUYN  BKK5 2KKGL",
"8lLIK:gKULf  jUUP<rIPPITPPPTILLILII%  :UL>  zYf  OKLIL",
"LKKKbO*NIGXO. NL9. =SPPIPPPIIILLLIx 4%&IB $ 5K.@%.KULL",
"KPIUd  @YY 3N 3G, - 9IIPPPIIILLLKIp p+:I7 f+<K 55 aKII",
"UUIUg @ lY.:IX%U2.Do=ITRPPTTILGGKUi f&OKq gX-R.1B =UUU",
"KUIPq e 4I -U$+U2 P; PPIIPIIIIYIPPq bt ZB 8<%TO@K: KLL",
"UUTF %N 6x qY$ L3 I8 xPPFHTTPPITTId%KKpPP3gUZU<-Pm7JIL",
"KKK= VC u5 DI>+K> Lb*NHKPHTTPPIIHs3<69q413<11-#+==-O&p",
"KKP;6PHqCBxRLLIIu:KIIHKPUPPTTPUIp             o+.o@+ @",
"IIPUUPPTZBAzfkguq7535:rUIUPUPIUU4 fPHSVZVVSDHHFKPIIY@O",
"c,%%+.            ..  OLTUUUPPITt %rMIIPPPTUUUPPIIIK%O",
"e  @@&-:<48qyagbZxq%  aUTTUIUUIYH3.   *8zHIPPTIPTIIF%o",
"u sIPHHPUUUYYULDwO  1zUUUUUUTUIIIIGzq-    =qlKPUIIIU=o",
"r hKPHHPIULLGu%  #rFTUIPPIUTRRURUURKKPFg9-    -qzLYI;.",
"r fKIKIKUUk>   3xLPITTTUIIIIITITIIIILLFKTPKk9&    :s%o",
"q hUUUUCwO  =aGIKPPPIPKITRIIPIIUTYIILIJIUKIIPPFk6#   +",
"q cIKf-  .5NEYLYUUUUPKKUTPJIITIIIITYIILITIIIUUPUPPSs4s",
"q tw.  ;fFKLLILIIIUUITITIJPPIIIIIIUURYITIIPIUUIPPPPPIT",
"q   +qVPIIILIIIDKULIIRITYTPPUIYIIIYIYIURPTPPPTTPPPPPII",
"b&:kIIUUIIIIIYILKUUUIIUTIIPTUIUIIIIYILIUIPPPPTTPHPPPPI",
"TUIKITITYYYYYIIIPUUTPPPPPPPTYIIIIIIIIIITTPPPPTPPPPPPPI",
"TIKPITTIPYIIIILIIPPPPKIIIITIUILIIIYYIKUYIPPPTTPPPTTPPI",
"KKKIPPIIHPTUPKPPPKUUPPITYIYYIPUIYITUIPIIGIIPIIIRPITIPP",
"KLPHHIPKPPPUUPITTUUUPULUIIIYUPUURRIPYYLIIYYYITIRPPYRPK",
"UKIPPTUPUPHPTTUUUTTTILUULYEIIPIIITITRIGLITIYIIIIPPPIPP",
"UUPKPUUPUUPFKIPPPUUYUUUULIRLKUPKPITIIIDGTUIYPFIIIIPJPP",
"PTIKKPTPUUUKKKPUUYLIUUTUIIILLILUIITTIRPJIIIRIIIITIPPPI",
"UIGUPULUIIUUPITPIUUUYULIILLIIIIUIIPIIUTPLIIIYIIIIPPIII"
};
