/* XPM */
static char *result[] = {
/* columns rows colors chars-per-pixel */
"64 64 230 2 ",
"   c #58220F",
".  c #562412",
"X  c #5C2512",
"o  c #5C2B14",
"O  c #5E3017",
"+  c #682E0F",
"@  c #642B13",
"#  c #602914",
"$  c #692E12",
"%  c #6C3315",
"&  c #6E3915",
"*  c #663218",
"=  c #6B3419",
"-  c #6E3B1A",
";  c #713614",
":  c #753B14",
">  c #7A3D14",
",  c #733C1A",
"<  c #773C18",
"1  c #6D3E28",
"2  c #744117",
"3  c #764416",
"4  c #7D4215",
"5  c #76421B",
"6  c #7B441A",
"7  c #7D4A1C",
"8  c #794621",
"9  c #774E30",
"0  c #874D0F",
"q  c #8E560D",
"w  c #8F590D",
"e  c #915C0F",
"r  c #834414",
"t  c #854C14",
"y  c #8A4F13",
"u  c #81451A",
"i  c #834B1C",
"p  c #884E1D",
"a  c #8D5414",
"s  c #8B5816",
"d  c #85511C",
"f  c #8C541C",
"g  c #8E591B",
"h  c #905717",
"j  c #925C13",
"k  c #925C1C",
"l  c #94610F",
"z  c #8C611F",
"x  c #956214",
"c  c #996413",
"v  c #9C6B16",
"b  c #97671B",
"n  c #94631D",
"m  c #9D6C1B",
"M  c #9E711D",
"N  c #A16E1B",
"B  c #A2721D",
"V  c #824D21",
"C  c #855222",
"Z  c #8B5522",
"A  c #8C5A23",
"S  c #8A582A",
"D  c #955B23",
"F  c #925D23",
"G  c #915D2A",
"H  c #915F33",
"J  c #8E6123",
"K  c #9A6524",
"L  c #9B6C22",
"P  c #946628",
"I  c #9C6B2A",
"U  c #9E7223",
"Y  c #9D732B",
"T  c #916633",
"R  c #956733",
"E  c #A06A25",
"W  c #A27523",
"Q  c #A57A26",
"!  c #A97A26",
"~  c #A2752B",
"^  c #A57A2B",
"/  c #AA7D2D",
"(  c #B07F2B",
")  c #A37634",
"_  c #A57C32",
"`  c #A97E32",
"'  c #AD812E",
"]  c #B1832E",
"[  c #AC8234",
"{  c #AD853B",
"}  c #AA863C",
"|  c #B18534",
" . c #B48935",
".. c #B1863B",
"X. c #B48A3D",
"o. c #BA8D3B",
"O. c #BC933E",
"+. c #AE8740",
"@. c #AE8942",
"#. c #B58B42",
"$. c #B68D47",
"%. c #B98F43",
"&. c #BB9144",
"*. c #B69049",
"=. c #BA924A",
"-. c #BC9553",
";. c #BA9656",
":. c #C19545",
">. c #C49A54",
",. c #C69C57",
"<. c #CDA156",
"1. c #2F6A9A",
"2. c #31679D",
"3. c #336B9E",
"4. c #3B6E9D",
"5. c #34729F",
"6. c #3C719E",
"7. c #346CA1",
"8. c #3672A2",
"9. c #3C74A3",
"0. c #3E78A7",
"q. c #4275A2",
"w. c #457AA5",
"e. c #4B7DA5",
"r. c #4276A9",
"t. c #457CAA",
"y. c #4A7EAA",
"u. c #517FA6",
"i. c #4880A9",
"p. c #4C82AB",
"a. c #5581A6",
"s. c #5B84A6",
"d. c #5384AC",
"f. c #5C86AA",
"g. c #5488AF",
"h. c #5C89AD",
"j. c #5987B0",
"k. c #5689B1",
"l. c #5B8CB2",
"z. c #5E91B4",
"x. c #6B8DA7",
"c. c #648BAC",
"v. c #6A8EAB",
"b. c #6C90A7",
"n. c #6C91AC",
"m. c #7494AC",
"M. c #7895AA",
"N. c #7B95AC",
"B. c #7D99AF",
"V. c #638EB1",
"C. c #6592B4",
"Z. c #6C94B4",
"A. c #6C96B8",
"S. c #6C98B8",
"D. c #7296B3",
"F. c #7897B0",
"G. c #749AB5",
"H. c #7C9DB4",
"J. c #749CB8",
"K. c #7A9EB9",
"L. c #7EA0B7",
"P. c #7DA1B9",
"I. c #8E9087",
"U. c #939388",
"Y. c #899497",
"T. c #979B94",
"R. c #939B9B",
"E. c #9DA39C",
"W. c #A1A49A",
"Q. c #8495A3",
"!. c #8A96A2",
"~. c #8699A6",
"^. c #8B9AA5",
"/. c #8197AC",
"(. c #839AAD",
"). c #8B9DAB",
"_. c #939DA6",
"`. c #989EA7",
"'. c #929DAA",
"]. c #829DB2",
"[. c #8A9FB1",
"{. c #849FB8",
"}. c #8EA1AD",
"|. c #96A1A6",
" X c #9CA4A3",
".X c #91A2AE",
"XX c #9BA3AC",
"oX c #82A1B7",
"OX c #8CA3B4",
"+X c #83A2B9",
"@X c #8AA5BB",
"#X c #8EA8BC",
"$X c #93A4B1",
"%X c #99A9B5",
"&X c #93A9BA",
"*X c #99ACB9",
"=X c #A4A6AB",
"-X c #A7A7AA",
";X c #AAAAAE",
":X c #B4ABAA",
">X c #B2ADAC",
",X c #B3B0AF",
"<X c #BBB2AE",
"1X c #A4ABB3",
"2X c #ABAEB3",
"3X c #A2AEB8",
"4X c #B1AFB1",
"5X c #ACB1B5",
"6X c #A5B1BA",
"7X c #ACB2B8",
"8X c #B4B3B4",
"9X c #BBB6B3",
"0X c #BCB9B7",
"qX c #B5B5B9",
"wX c #B8B8B8",
"eX c #BDBAB9",
"rX c #C8B8AF",
"tX c #C4BAB5",
"yX c #C6BCB7",
"uX c #CCBDB4",
"iX c #C4BDB9",
"pX c #C9C0B9",
"aX c #CDC2BB",
"sX c #D3C5BB",
"dX c #D8C5B8",
"fX c #DCCABC",
"gX c #E5CCBA",
"hX c #E5D1BD",
"jX c #ECD3BE",
"kX c #F2DAC2",
/* pixels */
"2.2.7.2.3.3.7.7.7.8.8.9.8.9.9.9.9.9.r.r.r.r.r.t.t.t.t.t.t.p.t.t.p.t.t.t.t.t.t.t.r.r.r.0.r.r.0.0.9.9.8.8.9.8.8.8.7.7.7.1.7.2.7.2.",
"1.2.7.3.3.5.5.8.8.8.9.9.9.9.9.0.0.9.0.0.0.t.0.t.t.t.t.t.t.p.k.t.t.k.t.t.t.t.t.t.t.0.t.0.r.0.9.0.0.9.9.9.9.9.8.5.5.5.6.3.2.7.2.1.",
"3.2.3.6.6.6.6.6.6.9.6.9.0.0.0.0.r.t.t.t.t.t.i.i.p.p.p.p.p.t.p.p.k.t.t.t.t.r.k.t.t.i.t.t.r.r.t.w.t.q.0.0.9.6.9.6.9.6.6.6.6.3.2.1.",
"4.4.6.6.6.6.w.q.w.w.w.w.w.w.t.t.e.y.e.y.y.t.p.i.p.p.p.p.p.p.k.p.t.k.k.k.k.k.k.t.p.i.i.p.t.p.t.t.t.w.w.r.w.w.w.6.9.6.9.6.6.4.6.4.",
"6.q.6.q.q.q.q.q.w.w.w.w.w.e.y.t.e.y.p.p.p.p.p.p.p.k.p.p.k.k.k.k.k.p.k.k.t.k.t.p.p.p.p.p.p.y.y.t.t.w.w.e.w.w.w.w.q.q.q.q.6.6.q.4.",
"q.q.q.q.q.q.q.q.w.e.w.e.w.i.i.i.p.p.d.p.d.p.g.g.p.k.k.k.k.k.k.k.k.k.k.k.k.k.k.k.g.p.d.p.d.p.d.i.i.y.i.w.i.w.w.w.e.q.q.q.q.q.q.q.",
"6.q.e.q.q.e.e.e.w.e.i.p.p.p.p.d.d.d.d.g.g.g.g.g.k.k.k.k.k.z.k.k.k.k.l.k.k.k.k.k.k.g.k.d.d.d.d.d.p.p.p.p.i.w.i.e.e.q.q.e.q.q.q.q.",
"q.q.e.q.e.e.e.e.i.p.p.a.a.d.d.d.g.g.k.j.k.j.l.h.l.l.k.z.z.k.z.z.z.l.l.l.l.l.k.k.l.j.j.k.h.d.g.d.d.d.a.a.d.a.p.e.u.e.e.e.e.e.q.q.",
"q.e.e.e.e.u.u.u.a.a.a.d.d.d.d.j.j.j.j.j.l.l.l.l.z.z.z.z.z.z.z.z.z.z.z.z.l.z.l.l.l.l.l.l.j.l.j.j.d.j.j.u.u.j.u.u.u.e.e.e.e.e.e.e.",
"u.e.u.u.y.d.d.u.a.d.d.d.h.h.h.j.j.c.l.l.l.V.V.l.z.z.z.z.C.z.S.C.z.A.z.z.C.C.z.z.V.l.l.l.l.l.h.h.h.d.j.d.j.u.j.u.d.a.d.e.u.p.e.e.",
"u.u.u.u.d.u.u.f.f.f.h.h.h.h.h.V.V.V.V.V.C.V.C.C.C.C.z.A.S.S.A.A.z.A.A.A.C.C.C.C.C.C.C.V.V.V.V.c.V.h.j.j.V.j.u.c.s.d.a.a.u.u.u.u.",
"u.u.c.u.u.c.f.f.h.f.h.h.l.l.c.c.V.V.V.V.C.C.C.Z.A.A.C.A.S.S.S.S.A.A.A.A.A.C.A.A.C.C.C.C.V.V.V.V.c.V.c.c.c.j.j.c.f.s.f.s.x.u.u.u.",
"u.u.u.x.u.c.s.s.c.c.l.c.c.c.V.Z.V.C.Z.C.Z.Z.Z.Z.A.A.A.A.S.S.J.S.A.A.A.J.A.A.A.A.Z.Z.Z.Z.Z.C.V.V.V.v.V.V.c.c.c.u.c.u.c.u.u.x.u.u.",
"u.x.x.u.c.s.c.c.c.V.c.c.V.V.V.Z.C.C.n.A.Z.A.Z.A.A.A.G.J.J.J.P.S.J.J.J.A.S.J.A.A.D.Z.Z.Z.Z.Z.Z.C.C.V.v.V.V.V.V.c.c.c.c.c.c.u.x.u.",
"u.u.c.u.c.c.v.c.V.c.v.Z.Z.c.Z.D.Z.Z.A.A.D.G.G.G.G.J.J.J.J.J.J.P.J.J.J.J.J.J.S.J.J.G.Z.Z.Z.A.Z.Z.Z.v.V.c.v.V.V.c.c.c.c.u.c.u.u.x.",
"x.c.x.x.V.v.v.V.v.c.V.n.n.Z.m.D.D.D.D.G.G.G.J.H.J.J.J.J.J.P.J.P.P.K.P.K.J.K.K.J.J.G.J.G.D.D.D.D.D.Z.D.D.D.v.v.v.c.v.x.x.c.x.x.u.",
"x.x.c.c.x.v.v.v.n.n.D.D.n.G.m.D.G.G.G.G.H.G.G.L.J.P.K.P.P.P.P.P.P.P.P.P.K.K.K.K.L.G.H.G.G.H.G.D.D.D.D.m.D.n.n.n.n.n.b.b.b.c.c.c.",
"x.c.x.v.v.n.n.n.n.D.n.D.m.G.G.G.G.G.G.H.H.L.L.L.P.P.P.P.P.P.+X+XP.+XP.P.{.K.K.P.L.G.G.H.G.G.D.G.D.F.D.D.D.D.n.n.n.n.n.b.b.z.c.x.",
"x.x.x.v.v.v.n.D.D.m.F.m.G.G.H.G.B.H.H.L.L.L.L.L.+X+X+X+X+X+X+X+X+X+X+X+X+XoX{.P.L.L.H.L.L.L.H.H.G.H.D.F.m.m.D.m.D.n.b.n.b.b.x.x.",
"x.x.n.m.m.m.m.m.m.F.F.D.M.H.B.H.L.H.L.L.L.oXL.L.P.J.P.+X+X@X@X@X@X@X@X+XK.J.P.+XoXoXoXoXL.H.H.H.H.F.H.B.G.m.F.m.n.m.m.n.b.b.b.x.",
"x.x.n.m.m.m.F.m.F.F.F.B.H.H.H.{.oXL.oX+XoX+X@XL.#X6X#X+XP.@X#X&X@X@X@XP.OX6X*X{.oX+XoXoX{.{.{.{.L.H.H.G.H.N.F.B.m.m.m.m.m.m.x.x.",
"m.m.m.N.N.m.F.F.F.F.H.].].H.{.{.oXoX+X@XOX@X@XL.qXkXsXeX&X@X#X#X#X@X#XqXsXgXiX{.@X@X@X@X{.{.oX{.oXoXH.].H.H.F.F.F.F.F.m.m.m.b.m.",
"M.M.m.m.F.N.B.F.H.]./.].[.[..XXXXX.XOX@XOX@XoX&XiXsXkXfXaXiX*X#X#XiXaXfXkXsXaX3XoX@X@X@X{.%X$X$X.X).[.[././.H.B.F.N.N.N.M.M.M.m.",
"M.M.N.N.N.N.B.]./.].].N././.(.'.}.}.OX$X&X$X*X0XaXaXaXaXsXsX*X&X*XsXsXaXsXsXaXiX6X$X@X$XOX$X'.'.).)././.].B.].(.]./.N.N.M.M.M.M.",
"M.N.N.Q./.B./.].N.[.5X5XtXtX%X{.OXOXOXOXOX6XdXiXfXkXsXqXeX6X*X*X*X6XeXqXiXkXhXeXsXqX#XOXOXOX#X[.[.5XyXtX4X2X{./.].B.B.N.(.M.N.M.",
"N.N.N./././.].B./.yXgXgXgXdXtXXXOX%X2X1X$XqXyXiXsXsXsXsXpXwXqX5XqXeXpXsXaXsXsXaXtXtX$XXX7X%X$X[.2XuXgXgXdXgX2XN.]./.(./.(.N.N.N.",
"Q./.N.Q././././.-XgXuXgXtXtXtX1X5XuXuX0X.X2X9XaXyX6XqXiXpXiX7X3XqXpXiXpXqX3XpXaX0XqX$X,XuXuXtXXX5XyX9XuXgXuXuXXX/././.(././.Q.N.",
"/.!.`././.'.1X;XrXrXuXuX,X2X,X9XtXtX9X9X9XqX9XiXyXeXwXqX5X6X3X*X*X6X6XqXeXeXiXpX0XqX9X9X9XyXtXtX9X8X;XrXuXuXuX:X;X=X(.(.!.'.^.Q.",
"Q.!.`.!.'.XX=X`.`.=X;X=XXXXX=XtXtXtX9XtXuXtX0XwX0XsXgXfXaX7X*X6X*X7XaXfXfXsXwX8XtX9XyXuX9X9XtXuX<XXXXX=X;X;X=XXX`.=X`.).^.`.!.!.",
":XQ./.!.`.`.:X:X=X=X;X;X,X8X9XdXuX9XtXtXwXdXgXiXsXfXhXjXjXaX5X5X7XaXjXjXkXfXsXiXfXfX0XtXtX9XrXdXuX4X4X4X;X;X=X;XrX;X'.`.!.M.Q.:X",
"=X!.!.!.!.XX:XrX:X>X<X9X9X,X9X<X,X1X,X8X5X9XuXsXtX0XwXwXpX0X6X3X5XwXiX0XwX0XyXsXsX9X8X5X9X1X1X9X9X,X4XtX<X4X:X<XrX=X`.).'.!.!.=X",
"!.!.!.'.'.`.'.'.^.'.'.'.'.).).(.(..X.X.X$X.X$X$X$XOX$X$X$X$X$X%X$X$X$X$X$X$XOX.X$X[.$XXX.X'.)./.).).).'.'.`.).!._.'.`.`.!.!.!.!.",
"!.!.Q.~.^.^.).^.).~.).}.(.}.|.).}.}.}.$X}.$X$X$X$X$X$X$X$X%X%X$X$X&X$X$X$X$X$X$X$X$XOX$X.X.X}.)..X|.).(.}.).^.).)._.^.^.~.Q.~.!.",
"M.Q.Q.~.~.^.^.^.~.~.~.^.).).).}.}.}.}.$X$X$X$X$X$X$X$X$X$X$X$X$X$X$X$X$X$X$X$X$X$X$X.X.X$X.X}.}.).).).).).~.~.~.^.^.~.Q.!.~.Y.M.",
"Y.Q.~.^.R.~.^.).^.^.~.).).).).}.}.}.}.}.}.$XOX$X$X$X.X.X$X$X$X$X$X$X$X$X.X.X$X.X.X}..X}..X}.).).).).).^.~.(.).~.^.^.Y.~.!.!.Y.N.",
"Q.Y.Y.R.^.^.^.~.~.).^.~.}.^.).).}.}.}.}.}.}..X.X$X.X$X$X$X$X$X.X$X$X$X$X$X.X$X.X.X.X}.}.).}.}.).^.).).).^.^.^.^.~.^.).R.!.!.Y.Q.",
"M.N.N./.(.(.(.{.(.(.(.(.[.(.}.).}.}.oX}.OXOX+XOXOX@X@X@X@X@X#X&X@XOX@X@X@X@X@XOXOXoXOXOX[.OX[.).}.}.oX}.B.(.[.].[.(.B.(.(.N./.N.",
"Y.I.I.I.I.U.U.U.T.T.R.R.R.R.).|.}.|.|.|.|.|.E. XE.E.E.E.E.E.E.Y.E.W.W.E.E.E. X X X|.|.|.|._.).).}.R.R.R.R.R.T.U.U.U.U.I.I.I.I.I.",
"` ` ` ` [ | | [ | { %.$.%.$.-.-.;.;.;.;.;.>.>.>.>.>.,.<.<.<.>.=.>.<.<.<.,.>.,.>.>.>.>.-.>.;.;.-.-.=.*.*.$.#.{ [ [ ..| ' [ / ` ` ",
"^ / / ^ Q Q ! Q Q Q / [ { { [ ..X.X.X. .X.X.X.[ }  .[ } | } #.$.O.[ } [ [ [ }  .X.X.X...X.%.#...{ | [ [ ' ! Q Q Q Q Q ^ ^ ` ` ~ ",
"^ / ` [ [ +.+.} { } +.{ } } } } @.*.+.#.+...$.@.} [ _ [ ^ U / [ ' ' U ' ` [ } +.#.#.+.@.#.@.@.+.} } { } { { } { { +.+.[ [ _ _ ^ ",
"/ / ` X.#.#.+.` ..#.#.....+.#.X.@.$.=.=.*.*.*.*.$.$.$.$.#.X...X.} } @.} $.$.$.$.=.$.*.=.=.*.$.#...+.......$.+...| +.X.%.{ ` ^ / ",
"~ ~ W Q ` ` ` _ ` [ | X...X.| ` { { | %.%.X.X.X.| X.=.%.$.=.*.%.=.=.=.=.=.#.| ..%.X.%.$...| | | | ..X.X...| [ / _ ` _ [ Q W ~ ^ ",
"j e e c v m N W m v N B W N W ! B B Q / [ [ [ ' ! / ' |  .[ ' [ ' [  .' ' / ! / [ [ [ / ^ W N W W W M M B E v B W N m x c l e j ",
"w w j x j c c v c v N v v N m m v B W B N m N N B m m B W M m v v M B B B v B v v N N N W W v N N m m v v N c v v c l j x x w q ",
"w w c e e x c c c x j e l b j q j c j q j a a x j w e e q j j w l x w w e w e x j q j e e c j q q c v e j x l x c c c e e c l w ",
"s n a 0 s k a 0 h p a h 0 a a a y t a 0 j x j j j s j j j j n a z x g j j h j k j x j a y a t a y a y y h t f j a a j a y j g s ",
"4 r ; > > 4 & ; 5 ; 4 < ; > ; < < ; ; % @ & 4 > 4 : 6 i i g t i t s d i 6 : 4 4 > : @ @ ; ; , < : : < : 4 < , < ; % > > : % r 4 ",
"@ @   $ # @ = $ % $ # = = % = % % $ * # . . # @ X X % & + : 4 4 6 < $ ; & X   # @ X . X = @ = $ $ = , - @ # $ $ $ = # $ $ X @ @ ",
"  X $ # o @ % $ = # $ ; = < 4 < $ + ; < r 4 u ; ; : : - 6 y r t r a 4 = : ; : ; 6 u > 4 : $ $ ; 4 > , = ; # $ = $ % # o # @ X   ",
"  ; > % $ @ ; $ < ; < r ; 4 r > > > r i p j f f g f g n K F F K K k b n h f f k g g y p r 4 > > > r > > u ; ; : % ; @ $ ; < ;   ",
"% > > 4 > > < ; > > r y y < 4 p Z i D Z C k Z D t Z K K D P ~ E ) P D K P F i k Z f D Z Z p C Z u u > y y > > > ; > < ; r < > $ ",
"< = o @ > ; = , < : u 8 , < u D F Z C f D Z k k f K k Z E E I A I E E Z g K g h k Z D D V Z g K Z u , 5 i < , < ; * ; : # # = 4 ",
"= # o O & o - 6 5 8 C V = u D G i 6 p D C V C < u Z i C C u S S Z i V Z i f i < p C u Z g 7 6 p D f , , C i 8 6 6 = o - o o X = ",
"* % 2 - o * 7 i Z S F t , 6 Z 8 , % i V i V 8 C A J A J R I ) ^ ) Y R G A P J S 8 8 C V C , - 5 V S < , f F S Z p 8 O @ , , * * ",
", < < 5 5 i g P C d S Z A J P P Y T ) ^ [ _ [ O.o.[ { O.[ &.&.%.&.&.[ X.{ [ X.O..._ [ ^ Y ) R Y A P J A Z S d C J g i 5 2 > 2 , ",
"- ; , 7 A C C 7 i F Z J ^ / / X.| &.O.X.} O.&.X.%.%.O.%.{ &.o.%.&.&...%.&.&.&.X.%.&.{ ..O.:.{  .| ^ / U A A z 7 d Z Z f 5 < & - ",
"2 7 5 d S 6 7 7 d n L U / ^ ' ..[ { } =.*.X.{ %.#.$.:.X.%.&.X.%.X.&.X.X.=.%.X.&.....%.&.#.{ { { [ ^ ` / U m z 3 7 6 6 A d 5 7 5 ",
"6 7 7 5 & 5 f g A U ' U I { { [ ) _ { ..X...} { [ ..=.#.X.#.%.:.%.X.#.X.=.+.{ { } { X...{ ` ) _ { X._ P / ! P z A d 2 - 6 6 V 6 ",
"2 7 s & 2 K M U / ^ / Y Y [ ^ Y ) [ ..` ' } { #.+.{ #.X.%.&.%.:.&.&.%.X.X...X.#...#.` / } | _ ) Y / _ Y Y ^ ' Y W U n - - s 7 - ",
"z J M 3 U Q M Y Y U ^ I Y ~ ) Q | [ | ../ X.| :.O. . .] o.| (  .( | o.`  ...o.:.| o.[ ` X.[ [ _ ^ _ ~ K U ' M U U b ' P 3 M z z ",
"x U U L ' / M ' U ' | / ' [ ..{ |  .| W ! / ( ` K E E K ` D K ) K K ` E K W n / ` / / W '  .|  ...{ [ ' ' ' U ' ' v ' ' L U U x ",
"7 M U U M U ' U M [ / W / { | ' W ] W z D f G Z 8 T 9 p E G H R H G I Z 1 T C u I Z g g L ] ! / [  .[ ^ ' ' ' M M ' U U M U U 7 ",
"z M b b U U M U ^ ' W ^ ~ Y U U J K F H i , S 8 S H 8 S S G R R R G S S 9 S H 6 C 8 6 G G n J J W Y Y Q Y Y [ Y U M U M M v M z "
};
